<?xml version="1.0" encoding="utf-8"?>
<!-- Generator: Adobe Illustrator 27.5.0, SVG Export Plug-In . SVG Version: 6.00 Build 0)  -->
<svg version="1.1" xmlns="http://www.w3.org/2000/svg" xmlns:xlink="http://www.w3.org/1999/xlink" x="0px" y="0px"
	 viewBox="0 0 1200 1200" style="enable-background:new 0 0 1200 1200;" xml:space="preserve">
<g id="Background">
	<rect style="fill:#F5F4F3;" width="1200" height="1200"/>
</g>
<g id="Graphic_Elements">
	<g id="Graphic_Elements_1_">
		<path style="fill:none;stroke:#000000;stroke-width:16.4648;stroke-miterlimit:10;" d="M480.097,961.811
			c-14.71-54.056-15.277-111.785-2.328-166.25c11.612-48.843,34.569-94.194,14.142-145.071
			c-12.926-32.195-36.218-59.853-56.026-88.115c-12.792-18.252-25.005-37.945-31.142-59.557
			c-3.665-12.906-9.614-46.148,1.333-56.654c4.651-4.462,11.631-5.197,18.057-5.694c48.805-3.778,98.365-8.354,143.482-28.84
			c39.512-17.941,65.795-68.456,79.323-108.233c9.325-27.419,13.078-58.326,1.521-84.881
			c-11.557-26.555-41.975-46.179-69.789-38.108c-18.13,5.261-31.862,20.987-38.754,38.562c-6.892,17.575-7.809,36.902-7.24,55.771
			c0.262,8.686,0.702,17.904-3.562,25.476c-4.264,7.572-15.284,12.008-21.886,6.358c-3.277-2.805-4.612-7.26-5.198-11.533
			c-0.99-7.217,0.348-15.745,6.555-19.573c22.809-14.069,25.373,24.154,31.06,37.115c5.379,12.258,10.659,24.921,18.589,35.803
			c19.307,26.496,53.241,27.012,81.991,18.771c41.755-11.968,153.94-78.222,171.879-92.464c3.927-3.118,8.085-7.117,7.888-12.127
			c-0.271-6.893-8.219-10.463-14.914-12.123c-21.982-5.453-44.651-7.461-67.216-9.407c-98.007-8.452-196.702-16.066-294.604-6.472
			c-19.108,1.872-43.664,1.887-58.124,16.403c-3.323,3.336-5.647,8.003-5.039,12.673c0.615,4.724,4.005,8.552,7.293,11.999
			c31.26,32.775,68.11,57.262,104.474,83.618c29.278,21.22,60.305,43.853,92.943,59.653c29.16,14.116,59.477,25.603,89.36,38.054
			c22.064,9.193,48.975,20.032,34.624,49.711c-9.681,20.021-24.726,31.024-38.521,47.307
			c-22.081,26.063-43.752,50.976-52.698,84.356c-12.795,47.741,17.828,81.189,54.216,107.853
			c27.072,19.837,57.04,38.612,72.572,68.364c18.773,35.962,11.73,81.025-7.9,116.526c-19.63,35.501-50.217,63.446-80.257,90.709"/>
	</g>
</g>
</svg>
